<svg width="34" height="33" viewBox="0 0 34 33" fill="none" xmlns="http://www.w3.org/2000/svg">
<g clip-path="url(#clip0_2_70)">
<path d="M24.3839 3.67693L13.3297 14.4059C8.70416 18.9067 5.20131 24.3753 3.08946 30.3929C2.98875 30.6775 2.97271 30.9839 3.04318 31.277C3.11365 31.57 3.26778 31.8379 3.4879 32.0498L3.49367 32.0554C3.64685 32.2052 3.82903 32.3242 4.02973 32.4054C4.23044 32.4866 4.44571 32.5285 4.66315 32.5287C4.84613 32.5286 5.02784 32.4993 5.20105 32.442C11.401 30.3923 17.0353 26.9925 21.6725 22.5029L32.7262 11.774C33.8325 10.7003 34.454 9.24397 34.454 7.72548C34.454 6.207 33.8325 4.7507 32.7263 3.67696C32.1785 3.1453 31.5282 2.72357 30.8125 2.43583C30.0968 2.1481 29.3297 2 28.5551 2C26.9906 1.99999 25.4902 2.6032 24.3839 3.67693ZM20.1695 21.0445C15.9915 25.0891 10.9592 28.206 5.41992 30.1802C7.45389 24.8038 10.6652 19.9195 14.8323 15.8643L21.4173 9.47307L26.7545 14.6533L20.1695 21.0445ZM31.2237 10.3156L28.257 13.1949L22.9198 8.01469L25.8865 5.13531C26.2367 4.79436 26.6528 4.52378 27.1109 4.33904C27.569 4.1543 28.0602 4.05904 28.5562 4.05869C29.0523 4.05834 29.5436 4.15292 30.0019 4.33702C30.4603 4.52111 30.8768 4.79111 31.2276 5.13157C31.5784 5.47203 31.8565 5.87627 32.0462 6.32117C32.2359 6.76607 32.3333 7.2429 32.3329 7.72438C32.3326 8.20586 32.2344 8.68254 32.0441 9.12717C31.8537 9.5718 31.575 9.97564 31.2237 10.3156Z" fill="#D2CBCB"/>
</g>
<defs>
<clipPath id="clip0_2_70">
<rect width="34" height="33" fill="white"/>
</clipPath>
</defs>
</svg>
